PathFileType	4	(X/Y/Z)	./resultDataOpenSim/trcMotMarkerGrf/sub06/qtm-03-07.trc
DataRate	CameraRate	NumFrames	NumMarkers	Units	OrigDataRate	OrigDataStartFrame	OrigNumFrames
250.000000	250.000000	8	24	m	250.000000	184	488
Frame#	Time	L.Toe.Tip			R.Toe.Tip			L.Ankle.Lat			R.Ankle.Lat			L.Ankle.Med			R.Ankle.Med			L.Heel			R.Heel			L.Knee.Lat			R.Knee.Lat			L.Knee.Med			R.Knee.Med			L.Thigh.Upper			R.Thigh.Upper			L.ASIS			R.ASIS			V.Sacral			L.Acromium			R.Acromium			C7			L.Elbow			R.Elbow			L.Wrist.Lat			R.Wrist.Lat
		X1	Y1	Z1	X2	Y2	Z2	X3	Y3	Z3	X4	Y4	Z4	X5	Y5	Z5	X6	Y6	Z6	X7	Y7	Z7	X8	Y8	Z8	X9	Y9	Z9	X10	Y10	Z10	X11	Y11	Z11	X12	Y12	Z12	X13	Y13	Z13	X14	Y14	Z14	X15	Y15	Z15	X16	Y16	Z16	X17	Y17	Z17	X18	Y18	Z18	X19	Y19	Z19	X20	Y20	Z20	X21	Y21	Z21	X22	Y22	Z22	X23	Y23	Z23	X24	Y24	Z24

184	0.732	0.092870485	-0.01576697	-0.0065931017	-0.4949374	0.084019148	0.15671097	-0.028010475	0.014834212	-0.028498328	-0.50255922	0.22109169	0.18060957	-0.027477459	0.030390093	0.058986408	-0.46403445	0.207156	0.1003502	-0.10588637	-0.0080768526	0.016965241	-0.5270163	0.26508388	0.11705433	0.082275321	0.37038864	-0.060780708	-0.13993417	0.33024284	0.22316956	0.058472952	0.3720826	0.05915894	-0.15003649	0.31688263	0.091806452	-0.076707183	0.73633151	-0.12760747	-0.14103393	0.69207208	0.21418403	-0.015562888	0.76991978	-0.073805389	-0.035847856	0.75183838	0.17230166	-0.21145307	0.84337728	0.048025837	-0.10102169	1.2391413	-0.1463955	-0.081227231	1.240104	0.21791644	-0.16978755	1.2824062	0.038073188	-0.19857075	0.94172009	-0.18048165	-0.13068293	0.9245035	0.29929885	-0.11483612	0.71905329	-0.24419073	0.066846481	0.77281172	0.29812223
185	0.736	0.092889613	-0.015763742	-0.0065794494	-0.47782178	0.085893959	0.15697652	-0.027995401	0.014925821	-0.028486677	-0.48683313	0.22282218	0.17997587	-0.027504905	0.030502228	0.058983468	-0.44831012	0.20892248	0.099683749	-0.10589156	-0.0079321289	0.01699464	-0.51213865	0.26644056	0.11630296	0.083464747	0.37040338	-0.060609998	-0.12540631	0.33198005	0.22284532	0.059835782	0.37236604	0.059398957	-0.13600689	0.31885269	0.091450343	-0.071876892	0.73789241	-0.12803157	-0.13402651	0.69412071	0.21266962	-0.0098531625	0.77171115	-0.074434176	-0.029653228	0.75390318	0.17190178	-0.20517678	0.84572787	0.047741312	-0.093857882	1.2417001	-0.14628442	-0.075006625	1.2422019	0.21810781	-0.16289875	1.2846896	0.038038229	-0.18989292	0.94348137	-0.18154512	-0.125625	0.9266004	0.29821423	-0.10336783	0.72137994	-0.24345362	0.069300384	0.77224792	0.29851446
186	0.74	0.092869307	-0.015768615	-0.0065918825	-0.46042883	0.087604011	0.15707658	-0.027987137	0.015026536	-0.028482706	-0.47099203	0.22435241	0.17938238	-0.02754532	0.030629903	0.058966763	-0.43249269	0.21058624	0.099037615	-0.10589953	-0.0077778957	0.017012068	-0.49721599	0.2675639	0.1156029	0.084509173	0.37046412	-0.06042163	-0.11080416	0.33394686	0.22252791	0.061196764	0.3726625	0.059685948	-0.12184227	0.32094239	0.090986571	-0.066965812	0.73954199	-0.12837915	-0.12567433	0.69668155	0.21105995	-0.0041346085	0.77359739	-0.075046383	-0.02345599	0.75603048	0.17148847	-0.19905901	0.84813717	0.047489407	-0.086741828	1.2443611	-0.14618032	-0.068796138	1.2443499	0.21829679	-0.15603738	1.2870583	0.038034268	-0.18130929	0.94533475	-0.18241275	-0.12066563	0.92878608	0.29716465	-0.091864262	0.72383188	-0.24265274	0.071669676	0.77181996	0.29890128
187	0.744	0.092816498	-0.015776744	-0.0066261562	-0.44273271	0.089137213	0.15703463	-0.02798114	0.015143476	-0.028476608	-0.45506611	0.22565815	0.17881888	-0.027593675	0.03077493	0.058937606	-0.41659295	0.21214298	0.098433069	-0.1059114	-0.0076129901	0.017017072	-0.48224995	0.26844672	0.11496964	0.085428068	0.3705665	-0.060211872	-0.096060628	0.33614679	0.22224796	0.0624323	0.37294369	0.059982658	-0.10746027	0.32313822	0.090461446	-0.062002666	0.74125235	-0.12856812	-0.11656554	0.69992632	0.20996642	0.0015091712	0.77556161	-0.075599394	-0.017261431	0.75822581	0.17106167	-0.19310715	0.85060403	0.047267354	-0.079683294	1.2471046	-0.14607513	-0.062596028	1.2465411	0.21847196	-0.149199	1.2894879	0.038054821	-0.17277337	0.94727238	-0.18316311	-0.11580287	0.93106525	0.29613885	-0.080338564	0.72640839	-0.24179172	0.073962576	0.77151981	0.29928737
188	0.748	0.092761714	-0.015778657	-0.0066655619	-0.42472867	0.090513784	0.15689934	-0.027969423	0.015281612	-0.028458957	-0.43905518	0.22673827	0.17828809	-0.027647407	0.030934096	0.058899008	-0.40064044	0.21360282	0.09793538	-0.10592558	-0.0074394293	0.017012438	-0.46725583	0.26908999	0.11441971	0.086259223	0.37070948	-0.059962317	-0.081182204	0.33859192	0.22198714	0.063442266	0.373193	0.060266531	-0.092970594	0.32548873	0.089924346	-0.057045223	0.74299831	-0.12857527	-0.10796283	0.70356476	0.20959457	0.0069673605	0.77758086	-0.076037208	-0.011066186	0.76048957	0.17061986	-0.18741617	0.8531478	0.047096024	-0.072709565	1.2499133	-0.14593783	-0.056396414	1.2487703	0.21862566	-0.14237693	1.2919508	0.038093689	-0.16422352	0.94927934	-0.18392969	-0.11101893	0.93344486	0.29513269	-0.068803499	0.72910388	-0.24087796	0.076186486	0.77134473	0.2996726
189	0.752	0.092724131	-0.015773273	-0.0066971537	-0.40643009	0.091759043	0.15671837	-0.027944964	0.015442373	-0.028425424	-0.42291235	0.22762468	0.1778192	-0.027705911	0.031104853	0.058854583	-0.38464439	0.21495504	0.097551587	-0.10593738	-0.0072596153	0.017004618	-0.45227074	0.26949114	0.11394977	0.087020776	0.37089066	-0.059665336	-0.066226684	0.34131099	0.22169386	0.064211716	0.37341666	0.060549914	-0.078558669	0.32807331	0.089357995	-0.052092122	0.74479285	-0.12848602	-0.10086926	0.7069705	0.20970206	0.01225371	0.77964491	-0.076351734	-0.0048623234	0.76282472	0.17017298	-0.18197131	0.85575987	0.046921925	-0.065826053	1.2527785	-0.14575536	-0.050180109	1.2510323	0.21875839	-0.13556596	1.2944314	0.038149945	-0.15564165	0.95134679	-0.18474795	-0.10629585	0.93592397	0.2941507	-0.05723054	0.73192061	-0.23991039	0.078343499	0.77129612	0.3000559
190	0.756	0.092704031	-0.015764608	-0.0067210972	-0.38785094	0.092892113	0.15652327	-0.027912373	0.01562331	-0.028384995	-0.40657738	0.22836326	0.1774505	-0.027765852	0.031289906	0.058806396	-0.36858374	0.21615933	0.097212479	-0.10594037	-0.0070755055	0.017004352	-0.43733249	0.26963053	0.11352931	0.087705788	0.3711055	-0.059332745	-0.05125389	0.34433561	0.22132534	0.064772799	0.37363085	0.060852038	-0.064287733	0.33093967	0.088687466	-0.047068641	0.74666723	-0.1284102	-0.09526452	0.70976202	0.2098933	0.017566762	0.78176643	-0.076626784	0.0013482692	0.76523713	0.16973398	-0.17656227	0.85839166	0.046609893	-0.059002818	1.2556925	-0.14554172	-0.043932823	1.2533182	0.21887798	-0.12876522	1.2969198	0.038222946	-0.14704092	0.95346812	-0.18558306	-0.1016215	0.93848959	0.2931967	-0.04556255	0.73487075	-0.23886907	0.08043807	0.77137364	0.30043864
191	0.76	0.09269492	-0.015754802	-0.0067448606	-0.36898586	0.093932738	0.15634021	-0.027892184	0.015817926	-0.028362098	-0.39007618	0.22895612	0.17717099	-0.027820154	0.031496332	0.058752986	-0.35242061	0.21717266	0.096835452	-0.10592908	-0.0068903919	0.017024773	-0.42245454	0.26948173	0.11312985	0.088309269	0.37135225	-0.058980307	-0.036320711	0.3476632	0.22086535	0.065144742	0.37384466	0.061168347	-0.050067143	0.33407752	0.087905174	-0.041834694	0.74862893	-0.12840298	-0.089997933	0.7122508	0.21010145	0.023119537	0.78396367	-0.076969269	0.0075594227	0.76773325	0.16930586	-0.17101033	0.86099052	0.046083427	-0.052207201	1.2586437	-0.14531566	-0.037653011	1.255616	0.21899272	-0.12198121	1.2994042	0.038308028	-0.13844145	0.9556316	-0.18640127	-0.096988545	0.94112459	0.29227058	-0.03376945	0.7379631	-0.23772441	0.082477413	0.77157377	0.30082374
